<svg id="visual" viewBox="0 0 900 600" width="900" height="600" xmlns="http://www.w3.org/2000/svg" xmlns:xlink="http://www.w3.org/1999/xlink" version="1.1"><g stroke-width="1" stroke-linejoin="bevel"><path d="M416 331L439 395L514 401Z" fill="#15384f" stroke="#15384f"></path><path d="M514 401L562 329L416 331Z" fill="#081a28" stroke="#081a28"></path><path d="M562 329L539 264L416 331Z" fill="#1d4e6b" stroke="#1d4e6b"></path><path d="M533 535L588 427L514 401Z" fill="#112e42" stroke="#112e42"></path><path d="M514 401L588 427L562 329Z" fill="#0c2435" stroke="#0c2435"></path><path d="M539 264L439 184L416 331Z" fill="#00101c" stroke="#00101c"></path><path d="M598 201L529 182L539 264Z" fill="#1d4e6b" stroke="#1d4e6b"></path><path d="M539 264L529 182L439 184Z" fill="#081a28" stroke="#081a28"></path><path d="M598 201L539 264L562 329Z" fill="#246688" stroke="#246688"></path><path d="M295 464L406 508L439 395Z" fill="#0c2435" stroke="#0c2435"></path><path d="M439 395L406 508L514 401Z" fill="#081a28" stroke="#081a28"></path><path d="M680 331L598 201L562 329Z" fill="#297ea6" stroke="#297ea6"></path><path d="M439 184L312 268L416 331Z" fill="#297ea6" stroke="#297ea6"></path><path d="M269 433L295 464L439 395Z" fill="#297ea6" stroke="#297ea6"></path><path d="M406 508L533 535L514 401Z" fill="#277297" stroke="#277297"></path><path d="M716 375L680 331L588 427Z" fill="#00101c" stroke="#00101c"></path><path d="M588 427L680 331L562 329Z" fill="#19435d" stroke="#19435d"></path><path d="M533 535L590 529L588 427Z" fill="#1d4e6b" stroke="#1d4e6b"></path><path d="M269 433L439 395L416 331Z" fill="#205a7a" stroke="#205a7a"></path><path d="M312 268L269 433L416 331Z" fill="#081a28" stroke="#081a28"></path><path d="M730 483L716 375L588 427Z" fill="#19435d" stroke="#19435d"></path><path d="M676 174L591 130L598 201Z" fill="#205a7a" stroke="#205a7a"></path><path d="M676 174L598 201L680 331Z" fill="#19435d" stroke="#19435d"></path><path d="M598 201L591 130L529 182Z" fill="#205a7a" stroke="#205a7a"></path><path d="M529 182L484 78L439 184Z" fill="#081a28" stroke="#081a28"></path><path d="M439 184L263 220L312 268Z" fill="#297ea6" stroke="#297ea6"></path><path d="M312 268L220 360L269 433Z" fill="#081a28" stroke="#081a28"></path><path d="M315 90L263 220L439 184Z" fill="#15384f" stroke="#15384f"></path><path d="M406 508L480 600L533 535Z" fill="#1d4e6b" stroke="#1d4e6b"></path><path d="M533 535L567 600L590 529Z" fill="#112e42" stroke="#112e42"></path><path d="M383 600L480 600L406 508Z" fill="#00101c" stroke="#00101c"></path><path d="M779 270L676 174L680 331Z" fill="#15384f" stroke="#15384f"></path><path d="M188 339L220 360L312 268Z" fill="#297ea6" stroke="#297ea6"></path><path d="M591 130L484 78L529 182Z" fill="#277297" stroke="#277297"></path><path d="M480 600L567 600L533 535Z" fill="#1d4e6b" stroke="#1d4e6b"></path><path d="M590 529L730 483L588 427Z" fill="#19435d" stroke="#19435d"></path><path d="M322 600L406 508L295 464Z" fill="#112e42" stroke="#112e42"></path><path d="M322 600L383 600L406 508Z" fill="#19435d" stroke="#19435d"></path><path d="M484 78L414 77L439 184Z" fill="#0c2435" stroke="#0c2435"></path><path d="M722 600L730 483L590 529Z" fill="#1d4e6b" stroke="#1d4e6b"></path><path d="M676 174L685 135L591 130Z" fill="#112e42" stroke="#112e42"></path><path d="M569 0L473 0L484 78Z" fill="#081a28" stroke="#081a28"></path><path d="M782 175L685 135L676 174Z" fill="#081a28" stroke="#081a28"></path><path d="M779 270L680 331L716 375Z" fill="#19435d" stroke="#19435d"></path><path d="M263 220L188 339L312 268Z" fill="#0c2435" stroke="#0c2435"></path><path d="M220 360L189 488L269 433Z" fill="#297ea6" stroke="#297ea6"></path><path d="M210 600L322 600L295 464Z" fill="#1d4e6b" stroke="#1d4e6b"></path><path d="M189 488L295 464L269 433Z" fill="#297ea6" stroke="#297ea6"></path><path d="M414 77L315 90L439 184Z" fill="#00101c" stroke="#00101c"></path><path d="M263 220L161 177L188 339Z" fill="#00101c" stroke="#00101c"></path><path d="M800 401L779 270L716 375Z" fill="#1d4e6b" stroke="#1d4e6b"></path><path d="M730 483L800 401L716 375Z" fill="#0c2435" stroke="#0c2435"></path><path d="M109 407L189 488L220 360Z" fill="#19435d" stroke="#19435d"></path><path d="M569 0L484 78L591 130Z" fill="#1d4e6b" stroke="#1d4e6b"></path><path d="M484 78L473 0L414 77Z" fill="#15384f" stroke="#15384f"></path><path d="M414 77L374 0L315 90Z" fill="#246688" stroke="#246688"></path><path d="M779 270L782 175L676 174Z" fill="#1d4e6b" stroke="#1d4e6b"></path><path d="M698 0L569 0L591 130Z" fill="#081a28" stroke="#081a28"></path><path d="M900 227L782 175L779 270Z" fill="#277297" stroke="#277297"></path><path d="M567 600L722 600L590 529Z" fill="#1d4e6b" stroke="#1d4e6b"></path><path d="M730 483L811 497L800 401Z" fill="#19435d" stroke="#19435d"></path><path d="M698 0L591 130L685 135Z" fill="#297ea6" stroke="#297ea6"></path><path d="M473 0L374 0L414 77Z" fill="#246688" stroke="#246688"></path><path d="M228 86L161 177L263 220Z" fill="#081a28" stroke="#081a28"></path><path d="M188 339L109 407L220 360Z" fill="#246688" stroke="#246688"></path><path d="M228 86L263 220L315 90Z" fill="#081a28" stroke="#081a28"></path><path d="M235 0L228 86L315 90Z" fill="#1d4e6b" stroke="#1d4e6b"></path><path d="M797 600L811 497L730 483Z" fill="#00101c" stroke="#00101c"></path><path d="M800 401L900 282L779 270Z" fill="#277297" stroke="#277297"></path><path d="M189 488L210 600L295 464Z" fill="#0c2435" stroke="#0c2435"></path><path d="M782 175L765 97L685 135Z" fill="#297ea6" stroke="#297ea6"></path><path d="M98 285L109 407L188 339Z" fill="#205a7a" stroke="#205a7a"></path><path d="M189 488L71 600L210 600Z" fill="#0c2435" stroke="#0c2435"></path><path d="M374 0L319 0L315 90Z" fill="#112e42" stroke="#112e42"></path><path d="M161 177L98 285L188 339Z" fill="#19435d" stroke="#19435d"></path><path d="M765 97L698 0L685 135Z" fill="#15384f" stroke="#15384f"></path><path d="M722 600L797 600L730 483Z" fill="#0c2435" stroke="#0c2435"></path><path d="M900 534L900 393L811 497Z" fill="#0c2435" stroke="#0c2435"></path><path d="M811 497L900 393L800 401Z" fill="#205a7a" stroke="#205a7a"></path><path d="M782 175L900 110L765 97Z" fill="#297ea6" stroke="#297ea6"></path><path d="M319 0L235 0L315 90Z" fill="#297ea6" stroke="#297ea6"></path><path d="M228 86L105 122L161 177Z" fill="#00101c" stroke="#00101c"></path><path d="M161 177L67 217L98 285Z" fill="#15384f" stroke="#15384f"></path><path d="M900 393L900 282L800 401Z" fill="#246688" stroke="#246688"></path><path d="M765 97L837 0L698 0Z" fill="#15384f" stroke="#15384f"></path><path d="M0 374L81 497L109 407Z" fill="#0c2435" stroke="#0c2435"></path><path d="M109 407L81 497L189 488Z" fill="#205a7a" stroke="#205a7a"></path><path d="M105 122L67 217L161 177Z" fill="#0c2435" stroke="#0c2435"></path><path d="M98 285L0 327L109 407Z" fill="#1d4e6b" stroke="#1d4e6b"></path><path d="M900 282L900 227L779 270Z" fill="#00101c" stroke="#00101c"></path><path d="M120 0L105 122L228 86Z" fill="#297ea6" stroke="#297ea6"></path><path d="M797 600L900 534L811 497Z" fill="#112e42" stroke="#112e42"></path><path d="M900 227L900 110L782 175Z" fill="#112e42" stroke="#112e42"></path><path d="M0 171L0 327L67 217Z" fill="#297ea6" stroke="#297ea6"></path><path d="M67 217L0 327L98 285Z" fill="#112e42" stroke="#112e42"></path><path d="M0 327L0 374L109 407Z" fill="#1d4e6b" stroke="#1d4e6b"></path><path d="M0 528L71 600L81 497Z" fill="#246688" stroke="#246688"></path><path d="M81 497L71 600L189 488Z" fill="#19435d" stroke="#19435d"></path><path d="M797 600L900 600L900 534Z" fill="#297ea6" stroke="#297ea6"></path><path d="M900 110L837 0L765 97Z" fill="#19435d" stroke="#19435d"></path><path d="M235 0L120 0L228 86Z" fill="#112e42" stroke="#112e42"></path><path d="M105 122L0 171L67 217Z" fill="#205a7a" stroke="#205a7a"></path><path d="M0 123L0 171L105 122Z" fill="#112e42" stroke="#112e42"></path><path d="M0 374L0 528L81 497Z" fill="#1d4e6b" stroke="#1d4e6b"></path><path d="M0 0L0 123L105 122Z" fill="#15384f" stroke="#15384f"></path><path d="M900 110L900 0L837 0Z" fill="#15384f" stroke="#15384f"></path><path d="M0 528L0 600L71 600Z" fill="#15384f" stroke="#15384f"></path><path d="M120 0L0 0L105 122Z" fill="#205a7a" stroke="#205a7a"></path></g></svg>